<mxfile host="app.diagrams.net" agent="Mozilla/5.0 (Windows NT 10.0; Win64; x64) AppleWebKit/537.36 (KHTML, like Gecko) Chrome/130.0.0.0 Safari/537.36" version="24.8.4">
  <diagram id="C5RBs43oDa-KdzZeNtuy" name="Page-1">
    <mxGraphModel dx="2009" dy="1281" grid="1" gridSize="10" guides="1" tooltips="1" connect="1" arrows="1" fold="1" page="1" pageScale="1" pageWidth="827" pageHeight="1169" math="0" shadow="0">
      <root>
        <mxCell id="WIyWlLk6GJQsqaUBKTNV-0" />
        <mxCell id="WIyWlLk6GJQsqaUBKTNV-1" parent="WIyWlLk6GJQsqaUBKTNV-0" />
        <mxCell id="ONZSr_W5btkvEp7k7fHP-24" style="edgeStyle=orthogonalEdgeStyle;rounded=0;orthogonalLoop=1;jettySize=auto;html=1;exitX=1;exitY=0.25;exitDx=0;exitDy=0;endArrow=none;endFill=0;jumpStyle=none;startArrow=classic;startFill=1;" parent="WIyWlLk6GJQsqaUBKTNV-1" source="JV4BwhDXAtdapII2j0i4-8" edge="1">
          <mxGeometry relative="1" as="geometry">
            <mxPoint x="1030" y="570" as="targetPoint" />
            <Array as="points">
              <mxPoint x="950" y="665" />
              <mxPoint x="950" y="570" />
            </Array>
          </mxGeometry>
        </mxCell>
        <mxCell id="ONZSr_W5btkvEp7k7fHP-5" style="edgeStyle=orthogonalEdgeStyle;rounded=0;orthogonalLoop=1;jettySize=auto;html=1;exitX=1;exitY=0.5;exitDx=0;exitDy=0;entryX=-0.008;entryY=0.651;entryDx=0;entryDy=0;entryPerimeter=0;" parent="WIyWlLk6GJQsqaUBKTNV-1" source="WIyWlLk6GJQsqaUBKTNV-3" target="JV4BwhDXAtdapII2j0i4-2" edge="1">
          <mxGeometry relative="1" as="geometry" />
        </mxCell>
        <mxCell id="ONZSr_W5btkvEp7k7fHP-6" style="edgeStyle=orthogonalEdgeStyle;rounded=0;orthogonalLoop=1;jettySize=auto;html=1;exitX=1;exitY=0.5;exitDx=0;exitDy=0;entryX=0;entryY=0.5;entryDx=0;entryDy=0;" parent="WIyWlLk6GJQsqaUBKTNV-1" source="WIyWlLk6GJQsqaUBKTNV-3" target="JV4BwhDXAtdapII2j0i4-0" edge="1">
          <mxGeometry relative="1" as="geometry" />
        </mxCell>
        <mxCell id="ONZSr_W5btkvEp7k7fHP-7" style="edgeStyle=orthogonalEdgeStyle;rounded=0;orthogonalLoop=1;jettySize=auto;html=1;exitX=1;exitY=0.5;exitDx=0;exitDy=0;entryX=0;entryY=0.5;entryDx=0;entryDy=0;startArrow=classic;startFill=1;" parent="WIyWlLk6GJQsqaUBKTNV-1" source="WIyWlLk6GJQsqaUBKTNV-3" target="JV4BwhDXAtdapII2j0i4-8" edge="1">
          <mxGeometry relative="1" as="geometry" />
        </mxCell>
        <mxCell id="ONZSr_W5btkvEp7k7fHP-40" value="TLS External&lt;br&gt;Endpoints (443)" style="edgeLabel;html=1;align=center;verticalAlign=middle;resizable=0;points=[];" parent="ONZSr_W5btkvEp7k7fHP-7" vertex="1" connectable="0">
          <mxGeometry x="-0.7363" y="-2" relative="1" as="geometry">
            <mxPoint x="29" y="-2" as="offset" />
          </mxGeometry>
        </mxCell>
        <mxCell id="WIyWlLk6GJQsqaUBKTNV-3" value="CV Manager&lt;br&gt;Web App" style="rounded=1;whiteSpace=wrap;html=1;fontSize=12;glass=0;strokeWidth=1;shadow=0;fillColor=#dae8fc;strokeColor=#6c8ebf;" parent="WIyWlLk6GJQsqaUBKTNV-1" vertex="1">
          <mxGeometry x="550" y="532.73" width="120" height="60" as="geometry" />
        </mxCell>
        <mxCell id="ONZSr_W5btkvEp7k7fHP-15" style="edgeStyle=orthogonalEdgeStyle;rounded=0;orthogonalLoop=1;jettySize=auto;html=1;exitX=0.997;exitY=0.299;exitDx=0;exitDy=0;startArrow=classic;startFill=1;entryX=0.001;entryY=0.292;entryDx=0;entryDy=0;exitPerimeter=0;entryPerimeter=0;" parent="WIyWlLk6GJQsqaUBKTNV-1" source="JV4BwhDXAtdapII2j0i4-0" target="JV4BwhDXAtdapII2j0i4-4" edge="1">
          <mxGeometry relative="1" as="geometry" />
        </mxCell>
        <mxCell id="JV4BwhDXAtdapII2j0i4-0" value="Keycloak" style="rounded=1;whiteSpace=wrap;html=1;fontSize=12;glass=0;strokeWidth=1;shadow=0;fillColor=#dae8fc;strokeColor=#6c8ebf;" parent="WIyWlLk6GJQsqaUBKTNV-1" vertex="1">
          <mxGeometry x="790" y="532.73" width="120" height="60" as="geometry" />
        </mxCell>
        <mxCell id="JV4BwhDXAtdapII2j0i4-72" style="edgeStyle=orthogonalEdgeStyle;rounded=0;orthogonalLoop=1;jettySize=auto;html=1;exitX=0.5;exitY=0;exitDx=0;exitDy=0;" parent="WIyWlLk6GJQsqaUBKTNV-1" source="JV4BwhDXAtdapII2j0i4-2" edge="1">
          <mxGeometry relative="1" as="geometry">
            <Array as="points">
              <mxPoint x="850" y="320" />
              <mxPoint x="1300" y="320" />
              <mxPoint x="1300" y="270" />
            </Array>
            <mxPoint x="850" y="400" as="sourcePoint" />
            <mxPoint x="1300" y="270" as="targetPoint" />
          </mxGeometry>
        </mxCell>
        <mxCell id="JV4BwhDXAtdapII2j0i4-76" value="SNMP (161/162)&lt;br&gt;SSH (22)" style="edgeLabel;html=1;align=center;verticalAlign=middle;resizable=0;points=[];" parent="JV4BwhDXAtdapII2j0i4-72" vertex="1" connectable="0">
          <mxGeometry x="0.2287" y="1" relative="1" as="geometry">
            <mxPoint as="offset" />
          </mxGeometry>
        </mxCell>
        <mxCell id="ONZSr_W5btkvEp7k7fHP-11" style="edgeStyle=orthogonalEdgeStyle;rounded=0;orthogonalLoop=1;jettySize=auto;html=1;exitX=0.5;exitY=1;exitDx=0;exitDy=0;entryX=0.5;entryY=0;entryDx=0;entryDy=0;startArrow=classic;startFill=1;endArrow=classic;endFill=1;" parent="WIyWlLk6GJQsqaUBKTNV-1" source="JV4BwhDXAtdapII2j0i4-2" target="JV4BwhDXAtdapII2j0i4-0" edge="1">
          <mxGeometry relative="1" as="geometry" />
        </mxCell>
        <mxCell id="ONZSr_W5btkvEp7k7fHP-13" style="edgeStyle=orthogonalEdgeStyle;rounded=0;orthogonalLoop=1;jettySize=auto;html=1;exitX=1;exitY=0.25;exitDx=0;exitDy=0;entryX=0;entryY=0.25;entryDx=0;entryDy=0;" parent="WIyWlLk6GJQsqaUBKTNV-1" source="JV4BwhDXAtdapII2j0i4-2" target="JV4BwhDXAtdapII2j0i4-13" edge="1">
          <mxGeometry relative="1" as="geometry" />
        </mxCell>
        <mxCell id="ONZSr_W5btkvEp7k7fHP-23" style="edgeStyle=orthogonalEdgeStyle;rounded=0;orthogonalLoop=1;jettySize=auto;html=1;exitX=1;exitY=0.5;exitDx=0;exitDy=0;entryX=0;entryY=0.25;entryDx=0;entryDy=0;jumpStyle=arc;jumpSize=10;startArrow=classic;startFill=1;endArrow=none;endFill=0;" parent="WIyWlLk6GJQsqaUBKTNV-1" source="JV4BwhDXAtdapII2j0i4-2" target="JV4BwhDXAtdapII2j0i4-23" edge="1">
          <mxGeometry relative="1" as="geometry">
            <Array as="points">
              <mxPoint x="990" y="440" />
              <mxPoint x="990" y="665" />
            </Array>
          </mxGeometry>
        </mxCell>
        <mxCell id="JV4BwhDXAtdapII2j0i4-2" value="CV Manager API" style="rounded=1;whiteSpace=wrap;html=1;fontSize=12;glass=0;strokeWidth=1;shadow=0;fillColor=#dae8fc;strokeColor=#6c8ebf;" parent="WIyWlLk6GJQsqaUBKTNV-1" vertex="1">
          <mxGeometry x="790" y="410" width="120" height="60" as="geometry" />
        </mxCell>
        <mxCell id="ONZSr_W5btkvEp7k7fHP-31" style="edgeStyle=orthogonalEdgeStyle;rounded=0;orthogonalLoop=1;jettySize=auto;html=1;exitX=1.003;exitY=0.695;exitDx=0;exitDy=0;entryX=0;entryY=0.333;entryDx=0;entryDy=0;endArrow=classic;endFill=1;startArrow=none;startFill=0;exitPerimeter=0;entryPerimeter=0;" parent="WIyWlLk6GJQsqaUBKTNV-1" source="JV4BwhDXAtdapII2j0i4-4" target="JV4BwhDXAtdapII2j0i4-45" edge="1">
          <mxGeometry relative="1" as="geometry">
            <mxPoint x="1270" y="690" as="targetPoint" />
            <Array as="points">
              <mxPoint x="1200" y="574" />
              <mxPoint x="1200" y="650" />
              <mxPoint x="1430" y="650" />
              <mxPoint x="1430" y="790" />
            </Array>
          </mxGeometry>
        </mxCell>
        <mxCell id="JV4BwhDXAtdapII2j0i4-4" value="PostgreSQL DB" style="rounded=1;whiteSpace=wrap;html=1;fontSize=12;glass=0;strokeWidth=1;shadow=0;fillColor=#fff2cc;strokeColor=#d6b656;" parent="WIyWlLk6GJQsqaUBKTNV-1" vertex="1">
          <mxGeometry x="1030" y="532.73" width="120" height="60" as="geometry" />
        </mxCell>
        <mxCell id="ONZSr_W5btkvEp7k7fHP-12" style="edgeStyle=orthogonalEdgeStyle;rounded=0;orthogonalLoop=1;jettySize=auto;html=1;exitX=0.5;exitY=0;exitDx=0;exitDy=0;entryX=0.5;entryY=1;entryDx=0;entryDy=0;startArrow=classic;startFill=1;endArrow=classic;endFill=1;" parent="WIyWlLk6GJQsqaUBKTNV-1" source="JV4BwhDXAtdapII2j0i4-8" target="JV4BwhDXAtdapII2j0i4-0" edge="1">
          <mxGeometry relative="1" as="geometry" />
        </mxCell>
        <mxCell id="ONZSr_W5btkvEp7k7fHP-18" style="edgeStyle=orthogonalEdgeStyle;rounded=0;orthogonalLoop=1;jettySize=auto;html=1;exitX=1;exitY=0.75;exitDx=0;exitDy=0;entryX=0;entryY=0.75;entryDx=0;entryDy=0;startArrow=classic;startFill=1;" parent="WIyWlLk6GJQsqaUBKTNV-1" source="JV4BwhDXAtdapII2j0i4-8" target="JV4BwhDXAtdapII2j0i4-23" edge="1">
          <mxGeometry relative="1" as="geometry" />
        </mxCell>
        <mxCell id="ONZSr_W5btkvEp7k7fHP-26" style="edgeStyle=orthogonalEdgeStyle;rounded=0;orthogonalLoop=1;jettySize=auto;html=1;exitX=0.75;exitY=1;exitDx=0;exitDy=0;entryX=0.25;entryY=0;entryDx=0;entryDy=0;startArrow=classic;startFill=1;endArrow=none;endFill=0;" parent="WIyWlLk6GJQsqaUBKTNV-1" source="JV4BwhDXAtdapII2j0i4-8" target="JV4BwhDXAtdapII2j0i4-98" edge="1">
          <mxGeometry relative="1" as="geometry">
            <Array as="points">
              <mxPoint x="880" y="860" />
              <mxPoint x="1060" y="860" />
            </Array>
          </mxGeometry>
        </mxCell>
        <mxCell id="JV4BwhDXAtdapII2j0i4-8" value="Conflict Visualizer&lt;br&gt;API" style="rounded=1;whiteSpace=wrap;html=1;fontSize=12;glass=0;strokeWidth=1;shadow=0;fillColor=#dae8fc;strokeColor=#6c8ebf;" parent="WIyWlLk6GJQsqaUBKTNV-1" vertex="1">
          <mxGeometry x="790" y="650" width="120" height="60" as="geometry" />
        </mxCell>
        <mxCell id="JV4BwhDXAtdapII2j0i4-67" style="edgeStyle=orthogonalEdgeStyle;rounded=0;orthogonalLoop=1;jettySize=auto;html=1;exitX=1;exitY=0.5;exitDx=0;exitDy=0;entryX=0;entryY=0.5;entryDx=0;entryDy=0;" parent="WIyWlLk6GJQsqaUBKTNV-1" source="JV4BwhDXAtdapII2j0i4-13" target="JV4BwhDXAtdapII2j0i4-14" edge="1">
          <mxGeometry relative="1" as="geometry" />
        </mxCell>
        <mxCell id="ONZSr_W5btkvEp7k7fHP-14" style="edgeStyle=orthogonalEdgeStyle;rounded=0;orthogonalLoop=1;jettySize=auto;html=1;exitX=0.5;exitY=1;exitDx=0;exitDy=0;entryX=0.5;entryY=0;entryDx=0;entryDy=0;" parent="WIyWlLk6GJQsqaUBKTNV-1" source="JV4BwhDXAtdapII2j0i4-13" target="JV4BwhDXAtdapII2j0i4-4" edge="1">
          <mxGeometry relative="1" as="geometry" />
        </mxCell>
        <mxCell id="JV4BwhDXAtdapII2j0i4-13" value="Firmware Manager Scheduler" style="rounded=1;whiteSpace=wrap;html=1;fontSize=12;glass=0;strokeWidth=1;shadow=0;fillColor=#dae8fc;strokeColor=#6c8ebf;" parent="WIyWlLk6GJQsqaUBKTNV-1" vertex="1">
          <mxGeometry x="1030" y="410" width="120" height="60" as="geometry" />
        </mxCell>
        <mxCell id="JV4BwhDXAtdapII2j0i4-71" style="edgeStyle=orthogonalEdgeStyle;rounded=0;orthogonalLoop=1;jettySize=auto;html=1;exitX=0.5;exitY=0;exitDx=0;exitDy=0;entryX=0.5;entryY=1;entryDx=0;entryDy=0;" parent="WIyWlLk6GJQsqaUBKTNV-1" source="JV4BwhDXAtdapII2j0i4-14" target="JV4BwhDXAtdapII2j0i4-17" edge="1">
          <mxGeometry relative="1" as="geometry">
            <Array as="points" />
          </mxGeometry>
        </mxCell>
        <mxCell id="JV4BwhDXAtdapII2j0i4-77" value="SSH/SCP (22)&lt;br&gt;XFER (3600)" style="edgeLabel;html=1;align=center;verticalAlign=middle;resizable=0;points=[];" parent="JV4BwhDXAtdapII2j0i4-71" vertex="1" connectable="0">
          <mxGeometry x="0.5297" relative="1" as="geometry">
            <mxPoint y="47" as="offset" />
          </mxGeometry>
        </mxCell>
        <mxCell id="ONZSr_W5btkvEp7k7fHP-38" style="edgeStyle=orthogonalEdgeStyle;rounded=0;orthogonalLoop=1;jettySize=auto;html=1;exitX=0.5;exitY=1;exitDx=0;exitDy=0;entryX=0.5;entryY=0;entryDx=0;entryDy=0;startArrow=classic;startFill=1;endArrow=none;endFill=0;" parent="WIyWlLk6GJQsqaUBKTNV-1" source="JV4BwhDXAtdapII2j0i4-14" target="JV4BwhDXAtdapII2j0i4-19" edge="1">
          <mxGeometry relative="1" as="geometry" />
        </mxCell>
        <mxCell id="JV4BwhDXAtdapII2j0i4-14" value="Firmware Manager Runner" style="rounded=1;whiteSpace=wrap;html=1;fontSize=12;glass=0;strokeWidth=1;shadow=0;fillColor=#dae8fc;strokeColor=#6c8ebf;" parent="WIyWlLk6GJQsqaUBKTNV-1" vertex="1">
          <mxGeometry x="1270" y="410" width="120" height="60" as="geometry" />
        </mxCell>
        <mxCell id="JV4BwhDXAtdapII2j0i4-117" style="edgeStyle=orthogonalEdgeStyle;rounded=0;orthogonalLoop=1;jettySize=auto;html=1;exitX=0.003;exitY=0.389;exitDx=0;exitDy=0;entryX=0.008;entryY=0.683;entryDx=0;entryDy=0;exitPerimeter=0;entryPerimeter=0;" parent="WIyWlLk6GJQsqaUBKTNV-1" source="JV4BwhDXAtdapII2j0i4-17" target="JV4BwhDXAtdapII2j0i4-96" edge="1">
          <mxGeometry relative="1" as="geometry">
            <Array as="points">
              <mxPoint x="210" y="233" />
              <mxPoint x="210" y="1034" />
            </Array>
          </mxGeometry>
        </mxCell>
        <mxCell id="JV4BwhDXAtdapII2j0i4-118" value="&lt;span data-lucid-content=&quot;{&amp;quot;t&amp;quot;:&amp;quot;BSM: UDP/46800 MAP: UDP/44920 SPaT: UDP/44910 SRM: UDP/44900 SSM: UDP/44930 TIM: UDP/47900&amp;quot;,&amp;quot;m&amp;quot;:[{&amp;quot;s&amp;quot;:0,&amp;quot;n&amp;quot;:&amp;quot;a&amp;quot;,&amp;quot;v&amp;quot;:&amp;quot;center&amp;quot;},{&amp;quot;s&amp;quot;:0,&amp;quot;n&amp;quot;:&amp;quot;c&amp;quot;,&amp;quot;v&amp;quot;:&amp;quot;333333ff&amp;quot;,&amp;quot;e&amp;quot;:90}]}&quot; data-lucid-type=&quot;application/vnd.lucid.text&quot;&gt;&lt;span style=&quot;color:#333333;&quot;&gt;BSM: UDP (46800)&lt;br&gt;MAP: UDP (44920)&lt;br&gt;SPaT: UDP (44910)&lt;br&gt;SRM: UDP (44900)&lt;br&gt;SSM: UDP (44930)&lt;br&gt;TIM: UDP (47900)&lt;/span&gt;&lt;/span&gt;" style="edgeLabel;html=1;align=center;verticalAlign=middle;resizable=0;points=[];" parent="JV4BwhDXAtdapII2j0i4-117" vertex="1" connectable="0">
          <mxGeometry x="0.3806" y="-4" relative="1" as="geometry">
            <mxPoint x="-6" y="-279" as="offset" />
          </mxGeometry>
        </mxCell>
        <mxCell id="JV4BwhDXAtdapII2j0i4-17" value="Roadside Units (RSUs)" style="rounded=1;whiteSpace=wrap;html=1;fontSize=12;glass=0;strokeWidth=1;shadow=0;fillColor=#e1d5e7;strokeColor=#9673a6;" parent="WIyWlLk6GJQsqaUBKTNV-1" vertex="1">
          <mxGeometry x="1270" y="210" width="120" height="60" as="geometry" />
        </mxCell>
        <mxCell id="JV4BwhDXAtdapII2j0i4-19" value="Blob / File Storage" style="rounded=1;whiteSpace=wrap;html=1;fontSize=12;glass=0;strokeWidth=1;shadow=0;fillColor=#fff2cc;strokeColor=#d6b656;" parent="WIyWlLk6GJQsqaUBKTNV-1" vertex="1">
          <mxGeometry x="1270" y="532.73" width="120" height="60" as="geometry" />
        </mxCell>
        <mxCell id="JV4BwhDXAtdapII2j0i4-23" value="MongoDB" style="rounded=1;whiteSpace=wrap;html=1;fontSize=12;glass=0;strokeWidth=1;shadow=0;fillColor=#fff2cc;strokeColor=#d6b656;" parent="WIyWlLk6GJQsqaUBKTNV-1" vertex="1">
          <mxGeometry x="1030" y="650" width="120" height="60" as="geometry" />
        </mxCell>
        <mxCell id="ONZSr_W5btkvEp7k7fHP-2" style="edgeStyle=orthogonalEdgeStyle;rounded=0;orthogonalLoop=1;jettySize=auto;html=1;exitX=1;exitY=0.5;exitDx=0;exitDy=0;entryX=0;entryY=0.5;entryDx=0;entryDy=0;startArrow=classic;startFill=1;endArrow=classic;endFill=1;" parent="WIyWlLk6GJQsqaUBKTNV-1" source="JV4BwhDXAtdapII2j0i4-26" target="WIyWlLk6GJQsqaUBKTNV-3" edge="1">
          <mxGeometry relative="1" as="geometry" />
        </mxCell>
        <mxCell id="ONZSr_W5btkvEp7k7fHP-3" value="TLS External&lt;br&gt;Endpoint (443)" style="edgeLabel;html=1;align=center;verticalAlign=middle;resizable=0;points=[];" parent="ONZSr_W5btkvEp7k7fHP-2" vertex="1" connectable="0">
          <mxGeometry x="0.0333" y="-2" relative="1" as="geometry">
            <mxPoint x="-2" y="-2" as="offset" />
          </mxGeometry>
        </mxCell>
        <mxCell id="JV4BwhDXAtdapII2j0i4-26" value="CV Manager User" style="rounded=1;whiteSpace=wrap;html=1;fontSize=12;glass=0;strokeWidth=1;shadow=0;fillColor=#e1d5e7;strokeColor=#9673a6;" parent="WIyWlLk6GJQsqaUBKTNV-1" vertex="1">
          <mxGeometry x="310" y="532.73" width="120" height="60" as="geometry" />
        </mxCell>
        <mxCell id="JV4BwhDXAtdapII2j0i4-86" style="edgeStyle=orthogonalEdgeStyle;rounded=0;orthogonalLoop=1;jettySize=auto;html=1;exitX=1;exitY=0.5;exitDx=0;exitDy=0;entryX=0;entryY=0.5;entryDx=0;entryDy=0;" parent="WIyWlLk6GJQsqaUBKTNV-1" source="JV4BwhDXAtdapII2j0i4-43" target="JV4BwhDXAtdapII2j0i4-85" edge="1">
          <mxGeometry relative="1" as="geometry" />
        </mxCell>
        <mxCell id="JV4BwhDXAtdapII2j0i4-87" value="HTTPS (443)" style="edgeLabel;html=1;align=center;verticalAlign=middle;resizable=0;points=[];" parent="JV4BwhDXAtdapII2j0i4-86" vertex="1" connectable="0">
          <mxGeometry x="0.0083" y="2" relative="1" as="geometry">
            <mxPoint as="offset" />
          </mxGeometry>
        </mxCell>
        <mxCell id="JV4BwhDXAtdapII2j0i4-88" style="edgeStyle=orthogonalEdgeStyle;rounded=0;orthogonalLoop=1;jettySize=auto;html=1;entryX=0.75;entryY=1;entryDx=0;entryDy=0;startArrow=classic;startFill=1;exitX=-0.002;exitY=0.32;exitDx=0;exitDy=0;exitPerimeter=0;" parent="WIyWlLk6GJQsqaUBKTNV-1" source="JV4BwhDXAtdapII2j0i4-43" target="JV4BwhDXAtdapII2j0i4-17" edge="1">
          <mxGeometry relative="1" as="geometry">
            <Array as="points">
              <mxPoint x="1430" y="552" />
              <mxPoint x="1430" y="320" />
              <mxPoint x="1360" y="320" />
            </Array>
            <mxPoint x="1470" y="574" as="sourcePoint" />
          </mxGeometry>
        </mxCell>
        <mxCell id="JV4BwhDXAtdapII2j0i4-94" value="ICMP" style="edgeLabel;html=1;align=center;verticalAlign=middle;resizable=0;points=[];" parent="JV4BwhDXAtdapII2j0i4-88" vertex="1" connectable="0">
          <mxGeometry x="-0.3517" y="-5" relative="1" as="geometry">
            <mxPoint x="-5" y="-149" as="offset" />
          </mxGeometry>
        </mxCell>
        <mxCell id="ONZSr_W5btkvEp7k7fHP-32" style="edgeStyle=orthogonalEdgeStyle;rounded=0;orthogonalLoop=1;jettySize=auto;html=1;entryX=0.993;entryY=0.315;entryDx=0;entryDy=0;endArrow=classic;endFill=1;startArrow=classic;startFill=1;exitX=-0.001;exitY=0.672;exitDx=0;exitDy=0;exitPerimeter=0;entryPerimeter=0;" parent="WIyWlLk6GJQsqaUBKTNV-1" source="JV4BwhDXAtdapII2j0i4-43" target="JV4BwhDXAtdapII2j0i4-4" edge="1">
          <mxGeometry relative="1" as="geometry">
            <mxPoint x="1519" y="570" as="sourcePoint" />
            <Array as="points">
              <mxPoint x="1470" y="573" />
              <mxPoint x="1470" y="620" />
              <mxPoint x="1230" y="620" />
              <mxPoint x="1230" y="552" />
              <mxPoint x="1149" y="552" />
            </Array>
          </mxGeometry>
        </mxCell>
        <mxCell id="JV4BwhDXAtdapII2j0i4-43" value="RSU Status&lt;br&gt;Checker" style="rounded=1;whiteSpace=wrap;html=1;fontSize=12;glass=0;strokeWidth=1;shadow=0;" parent="WIyWlLk6GJQsqaUBKTNV-1" vertex="1">
          <mxGeometry x="1520" y="532.73" width="120" height="60" as="geometry" />
        </mxCell>
        <mxCell id="ONZSr_W5btkvEp7k7fHP-36" style="edgeStyle=orthogonalEdgeStyle;rounded=0;orthogonalLoop=1;jettySize=auto;html=1;exitX=0;exitY=0.75;exitDx=0;exitDy=0;entryX=0.75;entryY=0;entryDx=0;entryDy=0;jumpStyle=arc;jumpSize=10;startArrow=classic;startFill=1;endArrow=none;endFill=0;" parent="WIyWlLk6GJQsqaUBKTNV-1" source="JV4BwhDXAtdapII2j0i4-44" target="JV4BwhDXAtdapII2j0i4-19" edge="1">
          <mxGeometry relative="1" as="geometry">
            <Array as="points">
              <mxPoint x="1490" y="455" />
              <mxPoint x="1490" y="510" />
              <mxPoint x="1360" y="510" />
            </Array>
          </mxGeometry>
        </mxCell>
        <mxCell id="ONZSr_W5btkvEp7k7fHP-37" style="edgeStyle=orthogonalEdgeStyle;rounded=0;orthogonalLoop=1;jettySize=auto;html=1;entryX=0.75;entryY=0;entryDx=0;entryDy=0;jumpStyle=arc;jumpSize=10;exitX=0.007;exitY=0.332;exitDx=0;exitDy=0;exitPerimeter=0;" parent="WIyWlLk6GJQsqaUBKTNV-1" source="JV4BwhDXAtdapII2j0i4-44" target="JV4BwhDXAtdapII2j0i4-4" edge="1">
          <mxGeometry relative="1" as="geometry">
            <mxPoint x="1519" y="430" as="sourcePoint" />
            <Array as="points">
              <mxPoint x="1460" y="430" />
              <mxPoint x="1460" y="490" />
              <mxPoint x="1120" y="490" />
            </Array>
          </mxGeometry>
        </mxCell>
        <mxCell id="JV4BwhDXAtdapII2j0i4-44" value="OBU OTA Server" style="rounded=1;whiteSpace=wrap;html=1;fontSize=12;glass=0;strokeWidth=1;shadow=0;fillColor=#dae8fc;strokeColor=#6c8ebf;" parent="WIyWlLk6GJQsqaUBKTNV-1" vertex="1">
          <mxGeometry x="1520" y="410" width="120" height="60" as="geometry" />
        </mxCell>
        <mxCell id="JV4BwhDXAtdapII2j0i4-83" style="edgeStyle=orthogonalEdgeStyle;rounded=0;orthogonalLoop=1;jettySize=auto;html=1;exitX=1;exitY=0.5;exitDx=0;exitDy=0;entryX=0;entryY=0.5;entryDx=0;entryDy=0;" parent="WIyWlLk6GJQsqaUBKTNV-1" source="JV4BwhDXAtdapII2j0i4-45" target="JV4BwhDXAtdapII2j0i4-82" edge="1">
          <mxGeometry relative="1" as="geometry" />
        </mxCell>
        <mxCell id="JV4BwhDXAtdapII2j0i4-84" value="SMTP (587)" style="edgeLabel;html=1;align=center;verticalAlign=middle;resizable=0;points=[];" parent="JV4BwhDXAtdapII2j0i4-83" vertex="1" connectable="0">
          <mxGeometry x="-0.1273" relative="1" as="geometry">
            <mxPoint x="7" as="offset" />
          </mxGeometry>
        </mxCell>
        <mxCell id="JV4BwhDXAtdapII2j0i4-45" value="CV Counter &amp;amp; Emailer" style="rounded=1;whiteSpace=wrap;html=1;fontSize=12;glass=0;strokeWidth=1;shadow=0;" parent="WIyWlLk6GJQsqaUBKTNV-1" vertex="1">
          <mxGeometry x="1520" y="770" width="120" height="60" as="geometry" />
        </mxCell>
        <mxCell id="JV4BwhDXAtdapII2j0i4-69" style="edgeStyle=orthogonalEdgeStyle;rounded=0;orthogonalLoop=1;jettySize=auto;html=1;exitX=0.5;exitY=1;exitDx=0;exitDy=0;entryX=0.5;entryY=0;entryDx=0;entryDy=0;startArrow=classic;startFill=1;" parent="WIyWlLk6GJQsqaUBKTNV-1" source="JV4BwhDXAtdapII2j0i4-49" target="JV4BwhDXAtdapII2j0i4-44" edge="1">
          <mxGeometry relative="1" as="geometry" />
        </mxCell>
        <mxCell id="JV4BwhDXAtdapII2j0i4-70" value="TLS External&lt;br&gt;Endpoint (443)" style="edgeLabel;html=1;align=center;verticalAlign=middle;resizable=0;points=[];" parent="JV4BwhDXAtdapII2j0i4-69" vertex="1" connectable="0">
          <mxGeometry x="-0.04" y="1" relative="1" as="geometry">
            <mxPoint as="offset" />
          </mxGeometry>
        </mxCell>
        <mxCell id="ONZSr_W5btkvEp7k7fHP-0" style="edgeStyle=orthogonalEdgeStyle;rounded=0;orthogonalLoop=1;jettySize=auto;html=1;exitX=0;exitY=0.5;exitDx=0;exitDy=0;entryX=1;entryY=0.5;entryDx=0;entryDy=0;" parent="WIyWlLk6GJQsqaUBKTNV-1" source="JV4BwhDXAtdapII2j0i4-49" target="JV4BwhDXAtdapII2j0i4-17" edge="1">
          <mxGeometry relative="1" as="geometry" />
        </mxCell>
        <mxCell id="ONZSr_W5btkvEp7k7fHP-1" value="BSM &amp;amp; SRM" style="edgeLabel;html=1;align=center;verticalAlign=middle;resizable=0;points=[];" parent="ONZSr_W5btkvEp7k7fHP-0" vertex="1" connectable="0">
          <mxGeometry x="0.1964" relative="1" as="geometry">
            <mxPoint x="15" y="-1" as="offset" />
          </mxGeometry>
        </mxCell>
        <mxCell id="JV4BwhDXAtdapII2j0i4-49" value="On-Board Units (OBUs)" style="rounded=1;whiteSpace=wrap;html=1;fontSize=12;glass=0;strokeWidth=1;shadow=0;fillColor=#e1d5e7;strokeColor=#9673a6;" parent="WIyWlLk6GJQsqaUBKTNV-1" vertex="1">
          <mxGeometry x="1520" y="210" width="120" height="60" as="geometry" />
        </mxCell>
        <mxCell id="JV4BwhDXAtdapII2j0i4-50" value="User / Edge Device" style="rounded=1;whiteSpace=wrap;html=1;fontSize=12;glass=0;strokeWidth=1;shadow=0;fillColor=#e1d5e7;strokeColor=#9673a6;" parent="WIyWlLk6GJQsqaUBKTNV-1" vertex="1">
          <mxGeometry x="40" y="40" width="120" height="60" as="geometry" />
        </mxCell>
        <mxCell id="JV4BwhDXAtdapII2j0i4-51" value="Microservice" style="rounded=1;whiteSpace=wrap;html=1;fontSize=12;glass=0;strokeWidth=1;shadow=0;fillColor=#dae8fc;strokeColor=#6c8ebf;" parent="WIyWlLk6GJQsqaUBKTNV-1" vertex="1">
          <mxGeometry x="40" y="120" width="120" height="60" as="geometry" />
        </mxCell>
        <mxCell id="JV4BwhDXAtdapII2j0i4-52" value="Data Storage" style="rounded=1;whiteSpace=wrap;html=1;fontSize=12;glass=0;strokeWidth=1;shadow=0;fillColor=#fff2cc;strokeColor=#d6b656;" parent="WIyWlLk6GJQsqaUBKTNV-1" vertex="1">
          <mxGeometry x="40" y="200" width="120" height="60" as="geometry" />
        </mxCell>
        <mxCell id="JV4BwhDXAtdapII2j0i4-81" value="Cron Service" style="rounded=1;whiteSpace=wrap;html=1;fontSize=12;glass=0;strokeWidth=1;shadow=0;" parent="WIyWlLk6GJQsqaUBKTNV-1" vertex="1">
          <mxGeometry x="40" y="280" width="120" height="60" as="geometry" />
        </mxCell>
        <mxCell id="JV4BwhDXAtdapII2j0i4-82" value="SMTP Server" style="rounded=1;whiteSpace=wrap;html=1;fontSize=12;glass=0;strokeWidth=1;shadow=0;fillColor=#e1d5e7;strokeColor=#9673a6;" parent="WIyWlLk6GJQsqaUBKTNV-1" vertex="1">
          <mxGeometry x="1761" y="770" width="120" height="60" as="geometry" />
        </mxCell>
        <mxCell id="JV4BwhDXAtdapII2j0i4-85" value="Zabbix API" style="rounded=1;whiteSpace=wrap;html=1;fontSize=12;glass=0;strokeWidth=1;shadow=0;fillColor=#e1d5e7;strokeColor=#9673a6;" parent="WIyWlLk6GJQsqaUBKTNV-1" vertex="1">
          <mxGeometry x="1761" y="532.73" width="120" height="60" as="geometry" />
        </mxCell>
        <mxCell id="ONZSr_W5btkvEp7k7fHP-42" style="edgeStyle=orthogonalEdgeStyle;rounded=0;orthogonalLoop=1;jettySize=auto;html=1;exitX=0;exitY=0.5;exitDx=0;exitDy=0;endArrow=none;endFill=0;startArrow=classic;startFill=1;" parent="WIyWlLk6GJQsqaUBKTNV-1" source="JV4BwhDXAtdapII2j0i4-89" edge="1">
          <mxGeometry relative="1" as="geometry">
            <mxPoint x="1470" y="620" as="targetPoint" />
            <Array as="points">
              <mxPoint x="1470" y="680" />
              <mxPoint x="1470" y="620" />
            </Array>
          </mxGeometry>
        </mxCell>
        <mxCell id="ONZSr_W5btkvEp7k7fHP-43" style="edgeStyle=orthogonalEdgeStyle;rounded=0;orthogonalLoop=1;jettySize=auto;html=1;exitX=1;exitY=0.5;exitDx=0;exitDy=0;" parent="WIyWlLk6GJQsqaUBKTNV-1" source="JV4BwhDXAtdapII2j0i4-89" edge="1">
          <mxGeometry relative="1" as="geometry">
            <mxPoint x="1760" y="680" as="targetPoint" />
          </mxGeometry>
        </mxCell>
        <mxCell id="ONZSr_W5btkvEp7k7fHP-44" value="HTTPS (443)" style="edgeLabel;html=1;align=center;verticalAlign=middle;resizable=0;points=[];" parent="ONZSr_W5btkvEp7k7fHP-43" vertex="1" connectable="0">
          <mxGeometry x="-0.1923" y="-1" relative="1" as="geometry">
            <mxPoint x="12" y="-1" as="offset" />
          </mxGeometry>
        </mxCell>
        <mxCell id="JV4BwhDXAtdapII2j0i4-89" value="ISS SCMS Health Checker" style="rounded=1;whiteSpace=wrap;html=1;fontSize=12;glass=0;strokeWidth=1;shadow=0;" parent="WIyWlLk6GJQsqaUBKTNV-1" vertex="1">
          <mxGeometry x="1520" y="650" width="120" height="60" as="geometry" />
        </mxCell>
        <mxCell id="JV4BwhDXAtdapII2j0i4-90" value="ISS SCMS API" style="rounded=1;whiteSpace=wrap;html=1;fontSize=12;glass=0;strokeWidth=1;shadow=0;fillColor=#e1d5e7;strokeColor=#9673a6;" parent="WIyWlLk6GJQsqaUBKTNV-1" vertex="1">
          <mxGeometry x="1761" y="650" width="120" height="60" as="geometry" />
        </mxCell>
        <mxCell id="JV4BwhDXAtdapII2j0i4-106" style="edgeStyle=orthogonalEdgeStyle;rounded=0;orthogonalLoop=1;jettySize=auto;html=1;exitX=0.5;exitY=0;exitDx=0;exitDy=0;entryX=0;entryY=0.5;entryDx=0;entryDy=0;startArrow=classic;startFill=1;" parent="WIyWlLk6GJQsqaUBKTNV-1" source="JV4BwhDXAtdapII2j0i4-96" target="JV4BwhDXAtdapII2j0i4-98" edge="1">
          <mxGeometry relative="1" as="geometry" />
        </mxCell>
        <mxCell id="JV4BwhDXAtdapII2j0i4-111" style="edgeStyle=orthogonalEdgeStyle;rounded=0;orthogonalLoop=1;jettySize=auto;html=1;exitX=0.006;exitY=0.306;exitDx=0;exitDy=0;entryX=0;entryY=0.75;entryDx=0;entryDy=0;startArrow=none;startFill=0;exitPerimeter=0;" parent="WIyWlLk6GJQsqaUBKTNV-1" source="JV4BwhDXAtdapII2j0i4-96" target="JV4BwhDXAtdapII2j0i4-17" edge="1">
          <mxGeometry relative="1" as="geometry">
            <Array as="points">
              <mxPoint x="270" y="1011" />
              <mxPoint x="270" y="255" />
            </Array>
          </mxGeometry>
        </mxCell>
        <mxCell id="JV4BwhDXAtdapII2j0i4-116" value="SNMP (161/162)" style="edgeLabel;html=1;align=center;verticalAlign=middle;resizable=0;points=[];" parent="JV4BwhDXAtdapII2j0i4-111" vertex="1" connectable="0">
          <mxGeometry x="-0.3345" y="-3" relative="1" as="geometry">
            <mxPoint x="2" y="-11" as="offset" />
          </mxGeometry>
        </mxCell>
        <mxCell id="JV4BwhDXAtdapII2j0i4-96" value="ODE" style="rounded=1;whiteSpace=wrap;html=1;fontSize=12;glass=0;strokeWidth=1;shadow=0;fillColor=#dae8fc;strokeColor=#6c8ebf;" parent="WIyWlLk6GJQsqaUBKTNV-1" vertex="1">
          <mxGeometry x="690" y="992.73" width="120" height="60" as="geometry" />
        </mxCell>
        <mxCell id="JV4BwhDXAtdapII2j0i4-107" style="edgeStyle=orthogonalEdgeStyle;rounded=0;orthogonalLoop=1;jettySize=auto;html=1;exitX=0.5;exitY=0;exitDx=0;exitDy=0;entryX=0.25;entryY=1;entryDx=0;entryDy=0;startArrow=classic;startFill=1;" parent="WIyWlLk6GJQsqaUBKTNV-1" source="JV4BwhDXAtdapII2j0i4-97" target="JV4BwhDXAtdapII2j0i4-98" edge="1">
          <mxGeometry relative="1" as="geometry" />
        </mxCell>
        <mxCell id="JV4BwhDXAtdapII2j0i4-97" value="GeoJSON Converter" style="rounded=1;whiteSpace=wrap;html=1;fontSize=12;glass=0;strokeWidth=1;shadow=0;fillColor=#dae8fc;strokeColor=#6c8ebf;" parent="WIyWlLk6GJQsqaUBKTNV-1" vertex="1">
          <mxGeometry x="890" y="992.73" width="120" height="60" as="geometry" />
        </mxCell>
        <mxCell id="JV4BwhDXAtdapII2j0i4-113" style="edgeStyle=orthogonalEdgeStyle;rounded=0;orthogonalLoop=1;jettySize=auto;html=1;exitX=0.5;exitY=0;exitDx=0;exitDy=0;entryX=0.5;entryY=1;entryDx=0;entryDy=0;" parent="WIyWlLk6GJQsqaUBKTNV-1" source="JV4BwhDXAtdapII2j0i4-98" target="JV4BwhDXAtdapII2j0i4-100" edge="1">
          <mxGeometry relative="1" as="geometry" />
        </mxCell>
        <mxCell id="JV4BwhDXAtdapII2j0i4-98" value="Kafka" style="rounded=1;whiteSpace=wrap;html=1;fontSize=12;glass=0;strokeWidth=1;shadow=0;fillColor=#fff2cc;strokeColor=#d6b656;" parent="WIyWlLk6GJQsqaUBKTNV-1" vertex="1">
          <mxGeometry x="1030" y="882.73" width="120" height="60" as="geometry" />
        </mxCell>
        <mxCell id="JV4BwhDXAtdapII2j0i4-108" style="edgeStyle=orthogonalEdgeStyle;rounded=0;orthogonalLoop=1;jettySize=auto;html=1;exitX=0.5;exitY=0;exitDx=0;exitDy=0;entryX=0.75;entryY=1;entryDx=0;entryDy=0;startArrow=classic;startFill=1;" parent="WIyWlLk6GJQsqaUBKTNV-1" source="JV4BwhDXAtdapII2j0i4-99" target="JV4BwhDXAtdapII2j0i4-98" edge="1">
          <mxGeometry relative="1" as="geometry" />
        </mxCell>
        <mxCell id="JV4BwhDXAtdapII2j0i4-110" style="edgeStyle=orthogonalEdgeStyle;rounded=0;orthogonalLoop=1;jettySize=auto;html=1;exitX=0.5;exitY=1;exitDx=0;exitDy=0;entryX=0.5;entryY=1;entryDx=0;entryDy=0;startArrow=classic;startFill=1;endArrow=none;endFill=0;jumpStyle=arc;jumpSize=10;" parent="WIyWlLk6GJQsqaUBKTNV-1" source="JV4BwhDXAtdapII2j0i4-99" target="JV4BwhDXAtdapII2j0i4-8" edge="1">
          <mxGeometry relative="1" as="geometry">
            <Array as="points">
              <mxPoint x="1150" y="1082.73" />
              <mxPoint x="850" y="1082.73" />
            </Array>
          </mxGeometry>
        </mxCell>
        <mxCell id="JV4BwhDXAtdapII2j0i4-99" value="Conflict Monitor" style="rounded=1;whiteSpace=wrap;html=1;fontSize=12;glass=0;strokeWidth=1;shadow=0;fillColor=#dae8fc;strokeColor=#6c8ebf;" parent="WIyWlLk6GJQsqaUBKTNV-1" vertex="1">
          <mxGeometry x="1090" y="992.73" width="120" height="60" as="geometry" />
        </mxCell>
        <mxCell id="JV4BwhDXAtdapII2j0i4-102" style="edgeStyle=orthogonalEdgeStyle;rounded=0;orthogonalLoop=1;jettySize=auto;html=1;exitX=0.5;exitY=0;exitDx=0;exitDy=0;entryX=0.5;entryY=1;entryDx=0;entryDy=0;" parent="WIyWlLk6GJQsqaUBKTNV-1" source="JV4BwhDXAtdapII2j0i4-100" target="JV4BwhDXAtdapII2j0i4-23" edge="1">
          <mxGeometry relative="1" as="geometry" />
        </mxCell>
        <mxCell id="JV4BwhDXAtdapII2j0i4-100" value="Kafka Connect" style="rounded=1;whiteSpace=wrap;html=1;fontSize=12;glass=0;strokeWidth=1;shadow=0;fillColor=#dae8fc;strokeColor=#6c8ebf;" parent="WIyWlLk6GJQsqaUBKTNV-1" vertex="1">
          <mxGeometry x="1030" y="772.73" width="120" height="60" as="geometry" />
        </mxCell>
        <mxCell id="JV4BwhDXAtdapII2j0i4-109" style="edgeStyle=orthogonalEdgeStyle;rounded=0;orthogonalLoop=1;jettySize=auto;html=1;exitX=0.5;exitY=0;exitDx=0;exitDy=0;entryX=1;entryY=0.5;entryDx=0;entryDy=0;startArrow=classic;startFill=1;" parent="WIyWlLk6GJQsqaUBKTNV-1" source="JV4BwhDXAtdapII2j0i4-101" target="JV4BwhDXAtdapII2j0i4-98" edge="1">
          <mxGeometry relative="1" as="geometry" />
        </mxCell>
        <mxCell id="JV4BwhDXAtdapII2j0i4-101" value="CV Message &lt;br&gt;Deduplicator" style="rounded=1;whiteSpace=wrap;html=1;fontSize=12;glass=0;strokeWidth=1;shadow=0;fillColor=#dae8fc;strokeColor=#6c8ebf;" parent="WIyWlLk6GJQsqaUBKTNV-1" vertex="1">
          <mxGeometry x="1290" y="992.73" width="120" height="60" as="geometry" />
        </mxCell>
        <mxCell id="JV4BwhDXAtdapII2j0i4-119" value="&lt;b&gt;&lt;font style=&quot;font-size: 36px;&quot;&gt;CV Manager Architecture and Dataflow&lt;/font&gt;&lt;/b&gt;" style="text;html=1;align=center;verticalAlign=middle;whiteSpace=wrap;rounded=0;" parent="WIyWlLk6GJQsqaUBKTNV-1" vertex="1">
          <mxGeometry x="610" y="50" width="733" height="110" as="geometry" />
        </mxCell>
        <mxCell id="JV4BwhDXAtdapII2j0i4-120" value="&lt;font style=&quot;font-size: 18px;&quot;&gt;&lt;b&gt;*&lt;/b&gt; Protocols and ports only detailed for connections made externally from the CV Manager architecture&lt;/font&gt;" style="text;html=1;align=center;verticalAlign=middle;whiteSpace=wrap;rounded=0;" parent="WIyWlLk6GJQsqaUBKTNV-1" vertex="1">
          <mxGeometry x="20" y="1100" width="490" height="50" as="geometry" />
        </mxCell>
        <mxCell id="ONZSr_W5btkvEp7k7fHP-45" style="edgeStyle=orthogonalEdgeStyle;rounded=0;orthogonalLoop=1;jettySize=auto;html=1;exitX=0.998;exitY=0.329;exitDx=0;exitDy=0;entryX=0.004;entryY=0.341;entryDx=0;entryDy=0;exitPerimeter=0;entryPerimeter=0;" parent="WIyWlLk6GJQsqaUBKTNV-1" source="17-A_7S04tm9I5A4U_Sy-2" target="JV4BwhDXAtdapII2j0i4-2" edge="1">
          <mxGeometry relative="1" as="geometry" />
        </mxCell>
        <mxCell id="ONZSr_W5btkvEp7k7fHP-46" value="HTTPS (443)" style="edgeLabel;html=1;align=center;verticalAlign=middle;resizable=0;points=[];" parent="ONZSr_W5btkvEp7k7fHP-45" vertex="1" connectable="0">
          <mxGeometry x="-0.069" y="2" relative="1" as="geometry">
            <mxPoint x="4" y="2" as="offset" />
          </mxGeometry>
        </mxCell>
        <mxCell id="17-A_7S04tm9I5A4U_Sy-2" value="WZDx API" style="rounded=1;whiteSpace=wrap;html=1;fontSize=12;glass=0;strokeWidth=1;shadow=0;fillColor=#e1d5e7;strokeColor=#9673a6;" parent="WIyWlLk6GJQsqaUBKTNV-1" vertex="1">
          <mxGeometry x="550" y="410" width="120" height="60" as="geometry" />
        </mxCell>
        <mxCell id="ONZSr_W5btkvEp7k7fHP-29" style="edgeStyle=orthogonalEdgeStyle;rounded=0;orthogonalLoop=1;jettySize=auto;html=1;exitX=1;exitY=0.75;exitDx=0;exitDy=0;entryX=0.002;entryY=0.296;entryDx=0;entryDy=0;entryPerimeter=0;startArrow=classic;startFill=1;endArrow=none;endFill=0;" parent="WIyWlLk6GJQsqaUBKTNV-1" source="JV4BwhDXAtdapII2j0i4-2" target="JV4BwhDXAtdapII2j0i4-4" edge="1">
          <mxGeometry relative="1" as="geometry">
            <Array as="points">
              <mxPoint x="950" y="455" />
              <mxPoint x="950" y="551" />
            </Array>
          </mxGeometry>
        </mxCell>
        <mxCell id="ONZSr_W5btkvEp7k7fHP-35" style="edgeStyle=orthogonalEdgeStyle;rounded=0;orthogonalLoop=1;jettySize=auto;html=1;exitX=1;exitY=0.5;exitDx=0;exitDy=0;entryX=-0.003;entryY=0.687;entryDx=0;entryDy=0;entryPerimeter=0;jumpStyle=arc;jumpSize=10;startArrow=classic;startFill=1;" parent="WIyWlLk6GJQsqaUBKTNV-1" source="JV4BwhDXAtdapII2j0i4-23" target="JV4BwhDXAtdapII2j0i4-45" edge="1">
          <mxGeometry relative="1" as="geometry" />
        </mxCell>
        <mxCell id="yrYifjW2ioR5sa2zc9-z-0" style="edgeStyle=orthogonalEdgeStyle;rounded=0;orthogonalLoop=1;jettySize=auto;html=1;exitX=0.75;exitY=0;exitDx=0;exitDy=0;entryX=1;entryY=0.5;entryDx=0;entryDy=0;jumpStyle=arc;jumpSize=10;" edge="1" parent="WIyWlLk6GJQsqaUBKTNV-1" source="JV4BwhDXAtdapII2j0i4-2" target="JV4BwhDXAtdapII2j0i4-82">
          <mxGeometry relative="1" as="geometry" />
        </mxCell>
        <mxCell id="yrYifjW2ioR5sa2zc9-z-1" value="SMTP (587)" style="edgeLabel;html=1;align=center;verticalAlign=middle;resizable=0;points=[];" vertex="1" connectable="0" parent="yrYifjW2ioR5sa2zc9-z-0">
          <mxGeometry x="0.1731" y="1" relative="1" as="geometry">
            <mxPoint x="-12" as="offset" />
          </mxGeometry>
        </mxCell>
        <mxCell id="yrYifjW2ioR5sa2zc9-z-3" style="edgeStyle=orthogonalEdgeStyle;rounded=0;orthogonalLoop=1;jettySize=auto;html=1;exitX=1;exitY=0.5;exitDx=0;exitDy=0;endArrow=none;endFill=0;" edge="1" parent="WIyWlLk6GJQsqaUBKTNV-1" source="JV4BwhDXAtdapII2j0i4-14">
          <mxGeometry relative="1" as="geometry">
            <mxPoint x="1410" y="390" as="targetPoint" />
          </mxGeometry>
        </mxCell>
      </root>
    </mxGraphModel>
  </diagram>
</mxfile>
